<svg width="369" height="97" viewBox="0 0 369 97" fill="none" xmlns="http://www.w3.org/2000/svg">
<g clip-path="url(#clip0_1190_1939)">
<path d="M66.8762 37.0042H77.2238V81.1225H66.8762V37.0042Z" fill="url(#paint0_linear_1190_1939)"/>
<path d="M130.945 37.0042V74.4279C130.945 89.9586 122.998 97.7278 107.105 97.7278C102.853 97.7278 98.8256 97.1944 95.0228 96.1198C91.2121 95.0453 88.0676 93.4914 85.5891 91.4506L90.2285 83.6814C92.157 85.2816 94.6045 86.5571 97.5554 87.5235C100.506 88.4898 103.504 88.9691 106.54 88.9691C111.396 88.9691 114.951 87.8636 117.22 85.6681C119.482 83.4649 120.613 80.1021 120.613 75.5875V73.276C118.847 75.2009 116.694 76.662 114.153 77.6515C111.613 78.641 108.825 79.1435 105.796 79.1435C101.606 79.1435 97.811 78.2468 94.4186 76.461C91.0263 74.6753 88.3464 72.1551 86.3869 68.9005C84.4274 65.6537 83.4515 61.9353 83.4515 57.7453C83.4515 53.5631 84.4274 49.8524 86.3869 46.6365C88.3464 43.4129 91.0263 40.9236 94.4186 39.1611C97.811 37.3985 101.606 36.5172 105.796 36.5172C108.995 36.5172 111.907 37.0429 114.533 38.0865C117.151 39.1301 119.35 40.7304 121.116 42.8795V37.012H130.945V37.0042ZM116.996 66.8751C119.505 64.5328 120.76 61.4947 120.76 57.7453C120.76 54.0579 119.505 51.0507 116.996 48.7392C114.486 46.4278 111.272 45.2682 107.353 45.2682C103.38 45.2682 100.135 46.4278 97.6251 48.7392C95.1157 51.0507 93.861 54.0579 93.861 57.7453C93.861 61.4947 95.1157 64.5328 97.6251 66.8751C100.135 69.2175 103.38 70.3848 107.353 70.3848C111.272 70.3848 114.486 69.2175 116.996 66.8751Z" fill="url(#paint1_linear_1190_1939)"/>
<path d="M140.788 37.0042H151.136V81.1225H140.788V37.0042Z" fill="url(#paint2_linear_1190_1939)"/>
<path d="M201.55 51.5455H211.727V81.1226H202.867V77.7367C198.731 80.5428 193.541 81.9498 187.307 81.9498C181.955 81.9498 177.044 80.7902 172.575 78.4788C168.106 76.1674 164.536 72.8046 161.856 68.3981C159.176 63.9917 157.844 58.7349 157.844 52.6201C157.844 46.8376 159.199 41.6427 161.902 37.043C164.605 32.4433 168.346 28.864 173.117 26.3052C177.888 23.7464 183.256 22.4631 189.22 22.4631C194.076 22.4631 198.491 23.2594 202.464 24.8596C206.437 26.4598 209.775 28.8022 212.478 31.879L205.694 38.4886C201.279 34.0822 195.95 31.879 189.715 31.879C185.634 31.879 182.001 32.7448 178.833 34.4842C175.658 36.2158 173.179 38.6587 171.382 41.7973C169.586 44.9359 168.695 48.5151 168.695 52.535C168.695 56.7791 169.593 60.4279 171.382 63.4815C173.172 66.5351 175.565 68.8542 178.539 70.4235C181.521 71.9928 184.774 72.7814 188.306 72.7814C190.792 72.7814 193.177 72.3948 195.47 71.6218C197.763 70.8487 199.784 69.7201 201.558 68.2358V51.5455H201.55Z" fill="url(#paint3_linear_1190_1939)"/>
<path d="M246.742 36.5095V46.3428C245.859 46.1805 245.062 46.0954 244.341 46.0954C240.314 46.0954 237.169 47.2627 234.908 49.6051C232.646 51.9475 231.515 55.318 231.515 59.7244V81.1226H221.168V37.0043H231.02V43.4516C233.994 38.821 239.237 36.5095 246.742 36.5095Z" fill="url(#paint4_linear_1190_1939)"/>
<path d="M259.158 78.8112C255.572 76.8863 252.768 74.196 250.754 70.7559C248.741 67.3158 247.734 63.4196 247.734 59.0673C247.734 54.715 248.741 50.8343 250.754 47.4173C252.768 44.0004 255.572 41.3334 259.158 39.4008C262.744 37.4758 266.771 36.5095 271.24 36.5095C275.764 36.5095 279.822 37.4758 283.408 39.4008C286.994 41.3257 289.798 44.0004 291.812 47.4173C293.825 50.8343 294.832 54.715 294.832 59.0673C294.832 63.4196 293.825 67.3158 291.812 70.7559C289.798 74.196 286.994 76.8863 283.408 78.8112C279.822 80.7361 275.764 81.7024 271.24 81.7024C266.771 81.7024 262.744 80.7438 259.158 78.8112ZM280.682 69.0629C283.16 66.5273 284.407 63.1954 284.407 59.0673C284.407 54.9392 283.168 51.6073 280.682 49.0717C278.196 46.5361 275.051 45.2683 271.248 45.2683C267.437 45.2683 264.308 46.5361 261.853 49.0717C259.398 51.6073 258.167 54.9392 258.167 59.0673C258.167 63.1954 259.39 66.5273 261.853 69.0629C264.308 71.5986 267.437 72.8664 271.248 72.8664C275.051 72.8664 278.196 71.5986 280.682 69.0629Z" fill="url(#paint5_linear_1190_1939)"/>
<path d="M369 37.0042V61.3786C369 67.8259 367.32 72.8198 363.95 76.3759C360.581 79.932 355.756 81.7023 349.467 81.7023C342.682 81.7023 337.795 79.414 334.813 74.8452C333.272 77.1567 331.297 78.8806 328.896 80.0093C326.495 81.1379 323.583 81.7023 320.167 81.7023C313.878 81.7023 309.06 79.9242 305.722 76.3759C302.384 72.8198 300.711 67.8259 300.711 61.3786V37.0042H311.059V60.4664C311.059 64.6564 311.787 67.7331 313.251 69.7199C314.714 71.6989 317.046 72.6962 320.244 72.6962C323.443 72.6962 325.821 71.6912 327.362 69.6812C328.904 67.6713 329.678 64.6023 329.678 60.4664V37.0042H340.026V60.4664C340.026 64.5945 340.8 67.6713 342.341 69.6812C343.883 71.6912 346.26 72.6962 349.459 72.6962C352.658 72.6962 354.989 71.7066 356.453 69.7199C357.917 67.7331 358.645 64.6564 358.645 60.4664V37.0042H369Z" fill="url(#paint6_linear_1190_1939)"/>
<path fill-rule="evenodd" clip-rule="evenodd" d="M20.6379 60.5981C22.0707 60.1343 23.3951 59.655 24.5337 59.2298C32.1394 56.3386 41.5808 50.8963 45.9104 41.0862C44.5859 43.042 43.0446 44.8664 41.3252 46.544C36.2211 51.507 29.5758 55.1171 22.6748 57.1812C14.3178 59.6936 8.11392 59.4153 7.97451 59.4231C7.03734 48.407 11.1036 41.5655 17.6792 37.5688C22.396 34.7007 33.0224 33.3865 38.1342 31.0133C40.3261 29.9928 42.4173 28.9028 44.3071 27.635C44.4233 27.5577 44.5472 27.4804 44.6556 27.4031C42.5722 26.1971 40.3183 25.2463 37.9483 24.5892C35.4621 23.8934 32.8443 23.5223 30.1412 23.5223H1.01935V58.2403V63.3966C1.32915 63.5512 11.4676 63.528 20.6379 60.5981Z" fill="black"/>
<path fill-rule="evenodd" clip-rule="evenodd" d="M20.6379 60.5981C22.0707 60.1343 23.3951 59.655 24.5337 59.2298C32.1394 56.3386 41.5808 50.8963 45.9104 41.0862C44.5859 43.042 43.0446 44.8664 41.3252 46.544C36.2211 51.507 29.5758 55.1171 22.6748 57.1812C14.3178 59.6936 8.11392 59.4153 7.97451 59.4231C7.03734 48.407 11.1036 41.5655 17.6792 37.5688C22.396 34.7007 33.0224 33.3865 38.1342 31.0133C40.3261 29.9928 42.4173 28.9028 44.3071 27.635C44.4233 27.5577 44.5472 27.4804 44.6556 27.4031C42.5722 26.1971 40.3183 25.2463 37.9483 24.5892C35.4621 23.8934 32.8443 23.5223 30.1412 23.5223H1.01935V58.2403V63.3966C1.32915 63.5512 11.4676 63.528 20.6379 60.5981Z" fill="#025C51"/>
<path fill-rule="evenodd" clip-rule="evenodd" d="M20.6379 60.5981C22.0707 60.1343 23.3951 59.655 24.5337 59.2298C32.1394 56.3386 41.5808 50.8963 45.9104 41.0862C44.5859 43.042 43.0446 44.8664 41.3252 46.544C36.2211 51.507 29.5758 55.1171 22.6748 57.1812C14.3178 59.6936 8.11392 59.4153 7.97451 59.4231C7.03734 48.407 11.1036 41.5655 17.6792 37.5688C22.396 34.7007 33.0224 33.3865 38.1342 31.0133C40.3261 29.9928 42.4173 28.9028 44.3071 27.635C44.4233 27.5577 44.5472 27.4804 44.6556 27.4031C42.5722 26.1971 40.3183 25.2463 37.9483 24.5892C35.4621 23.8934 32.8443 23.5223 30.1412 23.5223H1.01935V58.2403V63.3966C1.32915 63.5512 11.4676 63.528 20.6379 60.5981Z" fill="url(#paint7_linear_1190_1939)"/>
<path fill-rule="evenodd" clip-rule="evenodd" d="M32.7048 80.8597C34.4707 80.6124 36.9879 80.1408 39.7762 79.2363C50.7743 75.1932 58.6202 64.641 58.6202 52.2566C58.6202 45.5156 56.2889 39.3234 52.4008 34.4222C53.7562 39.7563 56.529 60.3737 40.7056 68.5681C28.0345 75.1314 17.9193 72.4566 1.01935 68.0657V81.1226H27.4768C29.2118 81.1226 30.9467 81.0375 32.6739 80.8597C32.6893 80.8675 32.6971 80.8675 32.7048 80.8597Z" fill="url(#paint8_linear_1190_1939)"/>
</g>
<defs>
<linearGradient id="paint0_linear_1190_1939" x1="-4.10555" y1="50.5805" x2="374.663" y2="92.9456" gradientUnits="userSpaceOnUse">
<stop stop-color="#539141"/>
<stop offset="1" stop-color="#9EC944"/>
</linearGradient>
<linearGradient id="paint1_linear_1190_1939" x1="-4.46051" y1="53.7595" x2="374.308" y2="96.1246" gradientUnits="userSpaceOnUse">
<stop stop-color="#539141"/>
<stop offset="1" stop-color="#9EC944"/>
</linearGradient>
<linearGradient id="paint2_linear_1190_1939" x1="-3.19557" y1="42.4455" x2="375.573" y2="84.8107" gradientUnits="userSpaceOnUse">
<stop stop-color="#539141"/>
<stop offset="1" stop-color="#9EC944"/>
</linearGradient>
<linearGradient id="paint3_linear_1190_1939" x1="-1.9146" y1="30.999" x2="376.854" y2="73.3642" gradientUnits="userSpaceOnUse">
<stop stop-color="#539141"/>
<stop offset="1" stop-color="#9EC944"/>
</linearGradient>
<linearGradient id="paint4_linear_1190_1939" x1="-2.08489" y1="32.5174" x2="376.683" y2="74.8826" gradientUnits="userSpaceOnUse">
<stop stop-color="#539141"/>
<stop offset="1" stop-color="#9EC944"/>
</linearGradient>
<linearGradient id="paint5_linear_1190_1939" x1="-1.65774" y1="28.697" x2="377.11" y2="71.0622" gradientUnits="userSpaceOnUse">
<stop stop-color="#539141"/>
<stop offset="1" stop-color="#9EC944"/>
</linearGradient>
<linearGradient id="paint6_linear_1190_1939" x1="-0.792606" y1="20.9658" x2="377.976" y2="63.3309" gradientUnits="userSpaceOnUse">
<stop stop-color="#539141"/>
<stop offset="1" stop-color="#9EC944"/>
</linearGradient>
<linearGradient id="paint7_linear_1190_1939" x1="-3.06592" y1="41.2889" x2="375.702" y2="83.654" gradientUnits="userSpaceOnUse">
<stop stop-color="#539141"/>
<stop offset="1" stop-color="#9EC944"/>
</linearGradient>
<linearGradient id="paint8_linear_1190_1939" x1="-4.52108" y1="54.2988" x2="374.247" y2="96.664" gradientUnits="userSpaceOnUse">
<stop stop-color="#539141"/>
<stop offset="1" stop-color="#9EC944"/>
</linearGradient>
<clipPath id="clip0_1190_1939">
<rect width="369" height="97" fill="white"/>
</clipPath>
</defs>
</svg>
